<svg width="148" height="30" viewBox="0 0 148 30" fill="none" xmlns="http://www.w3.org/2000/svg">
<g clip-path="url(#clip0_5352_46253)">
<path d="M43.9111 7.36867L42.3053 12.7922H50.3343C52.653 12.7922 53.8843 12.0398 54.4316 10.1656C55.0652 7.91529 53.7547 7.36867 51.724 7.36867H43.9111ZM9.33956 0H8.8355L0 30H0.468058L9.33956 0ZM12.1767 0H11.543L2.70754 30H3.29801L12.1767 0ZM14.9995 0H14.2362L5.40787 30H6.17117L14.9995 0ZM17.8366 0H16.9077L8.0722 30H9.00112L17.8366 0ZM20.6666 0H19.6152L10.7797 30H11.8383L20.6666 0ZM23.4965 0H22.3156L13.4801 30H14.661L23.4965 0ZM26.3265 0H25.0159L16.1876 30H17.4982L26.3265 0ZM29.1564 0H27.7162L18.8519 30H20.3353L29.1564 0ZM31.9936 0H30.3878L21.5523 30H23.1653L31.9936 0ZM34.8163 0H33.0881L24.2526 30H25.988L34.8163 0ZM50.1614 23.7885C50.6727 21.5736 50.2911 20.0757 48.0876 20.0757H40.1882L37.2358 29.9929H48.9373C48.7645 29.1268 49.4053 27.203 50.1614 23.7885ZM74.3708 30L74.0324 8.95883L67.7388 30H74.3708ZM92.3731 8.75296L80.506 30H85.9931L92.3731 8.75296ZM90.1768 0H80.9669L81.4277 16.5831L90.1768 0ZM120.449 0H106.321L97.8314 30H99.9484L108.453 0L108.265 18.7908L120.449 0ZM148 22.6242C148 18.0809 138.992 3.96119 135.658 0.91576C135.276 0.539517 134.772 0.248462 134.304 0L111.952 30H136.327C141.534 30 148 27.6219 148 22.6242Z" fill="#162A6B"/>
<path d="M93.937 -7.62939e-06H90.1781L81.429 16.5831L80.9609 -7.62939e-06H61.2449C67.8265 -7.62939e-06 66.948 5.42356 66.948 6.63038C66.948 10.6697 64.8165 13.7932 60.5968 14.8793C60.892 15.2556 62.2098 16.505 62.3754 16.9167C63.0091 17.8325 62.5482 19.16 62.5482 20.2461C62.5482 22.7094 61.2377 25.1159 61.2377 27.5367C61.2377 28.3672 61.5329 29.2546 61.9146 30H67.7401L74.0337 8.95882L74.3721 30H80.5001L92.3672 8.75295L85.9872 30H97.8255L106.315 -7.62939e-06H93.937Z" fill="#C0E0D3"/>
<path d="M120.45 -7.62939e-06L108.273 18.7908L108.453 -7.62939e-06L99.9419 30H111.953L134.305 -7.62939e-06H120.45Z" fill="white"/>
<path d="M68.6878 5.71461C68.6878 0.149062 62.135 -1.52588e-05 62.135 -1.52588e-05H61.2349C61.2349 -1.52588e-05 66.7436 0.42592 66.7436 5.71461C66.7436 10.1727 64.6697 13.8784 59.9747 14.8296C62.0918 16.1713 62.2646 18.4146 62.2646 19.0393C62.2646 21.8717 60.6156 24.5835 60.6156 27.4089C60.6156 28.2892 60.7812 29.2049 61.2133 30H63.1503C62.7183 29.2049 62.5527 28.2892 62.5527 27.4089C62.5527 24.5764 64.2017 21.8717 64.2017 19.0393C64.2017 18.4146 64.036 16.1642 61.9118 14.8296C66.614 13.8784 68.6878 10.1727 68.6878 5.71461Z" fill="#162A6B"/>
<path d="M50.3349 12.7922H42.3059L43.9117 7.36866H51.7247C53.7553 7.36866 55.0659 7.90818 54.4322 10.1656C53.8849 12.0397 52.6536 12.7922 50.3349 12.7922ZM61.2442 -7.62939e-06H34.8169L25.9886 30H37.2293L40.1888 20.0828H48.0882C50.2845 20.0828 50.6661 21.5807 50.1549 23.7955C49.3988 27.2101 48.7579 29.1268 48.9235 30H51.9047H52.4375H61.201C60.769 29.2049 60.6034 28.2892 60.6034 27.4089C60.6034 24.5764 62.2524 21.8717 62.2524 19.0393C62.2524 18.4146 62.0868 16.1642 59.9625 14.8296C64.6575 13.8784 66.7313 10.1727 66.7313 5.71462C66.7529 0.425927 61.2442 -7.62939e-06 61.2442 -7.62939e-06Z" fill="white"/>
<path d="M33.9152 -7.62939e-06V0.425927H134.087L134.317 -7.62939e-06H33.9152Z" fill="#162A6B"/>
<path d="M25.3043 29.5741V30.0001H125.505L125.721 29.5741H25.3043Z" fill="#162A6B"/>
</g>
<defs>
<clipPath id="clip0_5352_46253">
<rect width="148" height="30" fill="white"/>
</clipPath>
</defs>
</svg>
